<svg width="128" height="128" viewBox="0 0 128 128" fill="none" xmlns="http://www.w3.org/2000/svg">
<path d="M8.76546 80.3333C-0.255145 71.3127 -0.255156 56.6874 8.76545 47.6668L47.6667 8.76546C56.6873 -0.255145 71.3126 -0.255156 80.3332 8.76545L119.235 47.6667C128.255 56.6873 128.255 71.3126 119.235 80.3332L80.3333 119.235C71.3127 128.255 56.6874 128.255 47.6668 119.235L8.76546 80.3333Z" fill="#2863FF"/>
<path d="M40.7814 40.9924C40.5418 39.3255 41.6988 37.78 43.3656 37.5403L74.726 33.0314C76.3929 32.7918 77.9385 33.9488 78.1781 35.6156L84.6171 80.4005C84.8568 82.0674 83.6998 83.6129 82.0329 83.8526L50.6725 88.3615C49.0056 88.6011 47.4601 87.4441 47.2204 85.7773L40.7814 40.9924Z" fill="white"/>
<path d="M58.3191 38.4813L89.6414 43.2479C91.1697 43.4805 92.2201 44.908 91.9876 46.4364L85.1804 91.1668C84.9479 92.6951 83.5203 93.7455 81.992 93.5129L50.6697 88.7463C49.1414 88.5137 48.091 87.0862 48.3235 85.5578L55.1306 40.8274C55.3632 39.2991 56.7908 38.2487 58.3191 38.4813Z" fill="white" stroke="#2863FF" stroke-width="0.5"/>
</svg>
