<svg width="128" height="128" viewBox="0 0 128 128" fill="none" xmlns="http://www.w3.org/2000/svg">
<g clip-path="url(#clip0_13_8)">
<path fill-rule="evenodd" clip-rule="evenodd" d="M10.4517 44.0947C-0.817715 55.0892 -0.817715 72.913 10.4517 83.9066L43.0962 115.755C54.3656 126.749 72.6349 126.749 83.9033 115.755L116.548 83.9066C127.817 72.9121 127.817 55.0878 116.548 44.0947L83.9033 12.2464C72.6339 1.25331 54.3641 1.25331 43.0962 12.2464L10.4517 44.0947ZM77.7817 77.9352C85.67 70.2388 85.67 57.7621 77.7817 50.0671C69.8938 42.3707 57.1052 42.3707 49.2178 50.0671C41.329 57.763 41.329 70.2388 49.2178 77.9352C57.1062 85.6302 69.8938 85.6302 77.7826 77.9352H77.7817Z" fill="#2962FF"/>
</g>
<defs>
<clipPath id="clip0_13_8">
<rect width="123" height="120" fill="white" transform="translate(2 4)"/>
</clipPath>
</defs>
</svg>
