<svg width="128" height="128" viewBox="0 0 128 128" fill="none" xmlns="http://www.w3.org/2000/svg">
<path d="M45.2566 82.7611L82.7571 45.2561M57.7567 26.5036L60.6505 23.1531C66.5119 17.2919 74.4613 13.9994 82.7499 14C91.0385 14.0006 98.9874 17.2942 104.848 23.1563C110.709 29.0183 114.001 36.9687 114 45.2583C113.999 53.5479 110.706 61.4978 104.845 67.359L101.507 70.2594M70.2569 101.514L67.7756 104.851C61.8443 110.713 53.8419 114 45.5035 114C37.165 114 29.1626 110.713 23.2313 104.851C20.307 101.962 17.9852 98.5207 16.4006 94.7271C14.816 90.9335 14 86.863 14 82.7517C14 78.6403 14.816 74.5699 16.4006 70.7763C17.9852 66.9827 20.307 63.5414 23.2313 60.6519L26.5063 57.7577" stroke="white" stroke-width="11" stroke-linecap="round" stroke-linejoin="round"/>
</svg>
