<svg width="128" height="128" viewBox="0 0 128 128" fill="none" xmlns="http://www.w3.org/2000/svg">
<path d="M59.7615 108.56C61.4908 113.216 64.8015 117.117 69.1152 119.58C73.4288 122.044 78.4709 122.912 83.3602 122.035C88.2495 121.158 92.675 118.59 95.8633 114.781C99.0515 110.972 100.8 106.163 100.802 101.196V69.933L64.499 49.6638" stroke="#292929" stroke-width="5" stroke-linecap="round" stroke-linejoin="round"/>
<path d="M23.4404 82.1188C20.2697 85.9447 18.5449 90.7635 18.5676 95.7324C18.5903 100.701 20.3591 105.504 23.5646 109.301C26.7702 113.098 31.2084 115.647 36.1032 116.502C40.9979 117.358 46.0377 116.465 50.341 113.981L76.6003 98.6489V56.6219" stroke="#292929" stroke-width="5" stroke-linecap="round" stroke-linejoin="round"/>
<path d="M28.1956 37.4417C19.7793 36.0138 11.3328 39.8317 6.81306 47.6611C4.02651 52.4882 3.27125 58.2244 4.71339 63.6083C6.15552 68.9922 9.67696 73.5829 14.5033 76.3708L40.2967 91.5819L76.5999 71.3247" stroke="#292929" stroke-width="5" stroke-linecap="round" stroke-linejoin="round"/>
<path d="M69.2361 19.2054C67.5068 14.5488 64.196 10.6479 59.8824 8.18473C55.5687 5.72152 50.5266 4.85259 45.6373 5.72983C40.748 6.60706 36.3225 9.17465 33.1343 12.9838C29.946 16.793 28.1979 21.6015 28.1953 26.5689V57.2269L64.4985 78.1013" stroke="#292929" stroke-width="5" stroke-linecap="round" stroke-linejoin="round"/>
<path d="M105.558 45.6464C108.729 41.8205 110.453 37.0017 110.431 32.0328C110.408 27.0639 108.639 22.2611 105.434 18.4643C102.228 14.6676 97.7899 12.1185 92.8951 11.263C88.0003 10.4075 82.9606 11.2999 78.6572 13.7843L52.3979 29.1163V71.1433" stroke="#292929" stroke-width="5" stroke-linecap="round" stroke-linejoin="round"/>
<path d="M100.802 89.9118C109.218 91.3397 117.665 87.5218 122.185 79.6925C124.971 74.8653 125.727 69.1291 124.284 63.7452C122.842 58.3613 119.321 53.7706 114.495 50.9827L88.4288 35.7717L52.3979 56.4645" stroke="#292929" stroke-width="5" stroke-linecap="round" stroke-linejoin="round"/>
</svg>
