<svg width="26" height="26" viewBox="0 0 26 26" fill="none" xmlns="http://www.w3.org/2000/svg">
<circle cx="13" cy="13" r="13" fill="#EE8D8D"/>
<path d="M14.523 6.4771L13.27 13.9971L12.017 6.4771C11.9869 6.29527 11.9968 6.10907 12.046 5.93144C12.0951 5.75381 12.1823 5.589 12.3015 5.44845C12.4207 5.30791 12.5691 5.19499 12.7364 5.11755C12.9036 5.04011 13.0857 5 13.27 5C13.4543 5 13.6364 5.04011 13.8036 5.11755C13.9709 5.19499 14.1193 5.30791 14.2385 5.44845C14.3577 5.589 14.4449 5.75381 14.494 5.93144C14.5432 6.10907 14.5531 6.29527 14.523 6.4771Z" stroke="white" stroke-width="3" stroke-linecap="round" stroke-linejoin="round"/>
<path d="M13.27 20.4971C13.8223 20.4971 14.27 20.0494 14.27 19.4971C14.27 18.9448 13.8223 18.4971 13.27 18.4971C12.7177 18.4971 12.27 18.9448 12.27 19.4971C12.27 20.0494 12.7177 20.4971 13.27 20.4971Z" stroke="white" stroke-width="2"/>
</svg>
