<svg width="128" height="128" viewBox="0 0 128 128" fill="none" xmlns="http://www.w3.org/2000/svg">
<path d="M8.76546 80.3333C-0.255146 71.3127 -0.255157 56.6874 8.76545 47.6668L47.6667 8.76546C56.6873 -0.255146 71.3126 -0.255157 80.3332 8.76545L119.235 47.6667C128.255 56.6873 128.255 71.3126 119.235 80.3332L80.3333 119.235C71.3127 128.255 56.6874 128.255 47.6668 119.235L8.76546 80.3333Z" fill="#2863FF"/>
<path d="M40.7814 40.9924C40.5418 39.3255 41.6988 37.78 43.3656 37.5403L74.726 33.0314C76.3929 32.7918 77.9385 33.9488 78.1781 35.6156L84.6171 80.4005C84.8568 82.0674 83.6998 83.6129 82.0329 83.8526L50.6725 88.3615C49.0056 88.6011 47.4601 87.4441 47.2204 85.7773L40.7814 40.9924Z" fill="white"/>
<path d="M54.8835 40.7898C55.1369 39.125 56.6919 37.9807 58.3567 38.2341L89.679 43.0008C91.3438 43.2541 92.4881 44.8091 92.2347 46.474L85.4276 91.2044C85.1742 92.8692 83.6192 94.0135 81.9544 93.7601L50.6321 88.9935C48.9673 88.7401 47.823 87.1851 48.0764 85.5202L54.8835 40.7898Z" fill="white" stroke="#2863FF" stroke-width="3"/>
</svg>
